<?xml version="1.0" encoding="utf-8"?>
<!-- Generator: Adobe Illustrator 24.1.1, SVG Export Plug-In . SVG Version: 6.00 Build 0)  -->
<svg version="1.1" id="Layer_1" xmlns="http://www.w3.org/2000/svg" xmlns:xlink="http://www.w3.org/1999/xlink" x="0px" y="0px"
	 viewBox="0 0 512 512" style="enable-background:new 0 0 512 512;" xml:space="preserve">
<style type="text/css">
	.st0{fill:#1A1918;}
	.st1{fill:#006087;}
	.st2{fill:#FFFFFF;}
</style>
<g>
	<polyline class="st0" points="0,210.3 20,210.3 20,283.2 57.1,283.2 57.1,301.7 0,301.7 0,210.3 	"/>
	<path class="st0" d="M75.5,209c6.2,0,11.2,5,11.2,11.2c0,6.2-5,11.2-11.2,11.2c-6.2,0-11.2-5-11.2-11.2C64.4,214,69.4,209,75.5,209
		z M65.9,239.7h19.2v61.9H65.9V239.7z"/>
	<path class="st0" d="M95.8,239.8h18.5v8.5h0.3c2.6-4.9,8.8-10,18.2-10c19.5,0,23.1,12.8,23.1,29.5v34h-19.2v-30.1
		c0-7.2-0.1-16.4-10-16.4c-10,0-11.5,7.8-11.5,15.9v30.6H95.8V239.8"/>
	<polyline class="st0" points="165.6,210.3 184.8,210.3 184.8,264.9 206.6,239.7 230.1,239.7 204.9,268.4 229.6,301.7 205.4,301.7 
		185,271.1 184.8,271.1 184.8,301.7 165.6,301.7 165.6,210.3 	"/>
	<path class="st0" d="M286.9,290.9c-6.2,7.8-16.3,12.3-26.3,12.3c-19.2,0-34.6-12.8-34.6-32.7c0-19.9,15.4-32.7,34.6-32.7
		c18,0,29.2,12.8,29.2,32.7v6h-44.6c1.5,7.3,7,12.1,14.5,12.1c6.3,0,10.5-3.2,13.7-7.6L286.9,290.9z M270.6,263.5
		c0.1-6.4-4.9-11.8-11.8-11.8c-8.5,0-13.1,5.8-13.6,11.8H270.6z"/>
	<path class="st0" d="M363,301.6h-17.7v-8.2h-0.2c-3,4.5-10.4,9.7-19.1,9.7c-18.5,0-30.7-13.3-30.7-32.2c0-17.3,10.8-33.2,28.5-33.2
		c8,0,15.4,2.2,19.8,8.2h0.3v-35.7H363V301.6z M329.9,254.7c-9.6,0-15.4,6.4-15.4,15.8c0,9.4,5.8,15.8,15.4,15.8
		c9.6,0,15.4-6.4,15.4-15.8C345.3,261.1,339.6,254.7,329.9,254.7z"/>
	<path class="st1" d="M502.4,191.1H391.8c-5.3,0-9.6,4.2-9.6,9.4v111c0,5.2,4.3,9.4,9.6,9.4h110.6c5.3,0,9.6-4.2,9.6-9.4v-111
		C512,195.3,507.7,191.1,502.4,191.1"/>
	<path class="st2" d="M411.1,209c6.2,0,11.2,5,11.2,11.2c0,6.2-5,11.2-11.2,11.2c-6.2,0-11.2-5-11.2-11.2C400,214,405,209,411.1,209
		z M401.5,239.8h19.2v61.9h-19.2V239.8z"/>
	<path class="st2" d="M432.8,239.8h18.5v8.5h0.3c2.6-4.9,8.8-10,18.2-10c19.5,0,23.1,12.8,23.1,29.5v34h-19.2v-30.1
		c0-7.2-0.1-16.4-10-16.4c-10,0-11.5,7.8-11.5,15.9v30.6h-19.2V239.8"/>
</g>
</svg>
